<mxfile host="app.diagrams.net" modified="2023-10-26T07:48:21.458Z" agent="Mozilla/5.0 (Macintosh; Intel Mac OS X 10_15_7) AppleWebKit/537.36 (KHTML, like Gecko) Chrome/118.0.0.0 Safari/537.36" etag="jOEJhiBnsTbGqwSSNpJ2" version="21.7.5" type="github">
  <diagram id="07fea595-8f29-1299-0266-81d95cde20df" name="Page-1">
    <mxGraphModel dx="1406" dy="-1668" grid="0" gridSize="10" guides="1" tooltips="1" connect="1" arrows="1" fold="1" page="1" pageScale="1" pageWidth="1169" pageHeight="827" background="none" math="0" shadow="0">
      <root>
        <mxCell id="0" />
        <mxCell id="1" parent="0" />
        <mxCell id="644" value="&lt;font color=&quot;#ffffff&quot; style=&quot;font-size: 37px;&quot;&gt;&lt;span style=&quot;font-size: 37px;&quot;&gt;&lt;b style=&quot;font-size: 37px;&quot;&gt;数据治理&lt;br&gt;&lt;/b&gt;&lt;/span&gt;&lt;/font&gt;" style="shape=hexagon;perimeter=hexagonPerimeter2;whiteSpace=wrap;html=1;shadow=0;labelBackgroundColor=none;strokeColor=#23445D;fillColor=#23445D;gradientColor=none;fontFamily=Helvetica;fontSize=37;fontColor=#23445d;align=center;strokeWidth=3;" parent="1" vertex="1">
          <mxGeometry x="428.57894736842115" y="2764.7982456140344" width="311.84210526315786" height="259.86842105263156" as="geometry" />
        </mxCell>
        <mxCell id="645" value="" style="triangle;whiteSpace=wrap;html=1;shadow=0;labelBackgroundColor=none;strokeColor=none;fillColor=#FFFFFF;fontFamily=Helvetica;fontSize=17;fontColor=#23445d;align=center;rotation=90;gradientColor=none;flipV=1;flipH=1;opacity=20;" parent="1" vertex="1">
          <mxGeometry x="309.5" y="2782.6666666666665" width="72" height="152" as="geometry" />
        </mxCell>
        <mxCell id="646" value="&lt;font style=&quot;font-size: 37px;&quot;&gt;业务&lt;br style=&quot;font-size: 37px;&quot;&gt;数据化&lt;/font&gt;" style="shape=hexagon;perimeter=hexagonPerimeter2;whiteSpace=wrap;html=1;shadow=0;labelBackgroundColor=none;strokeColor=#6c8ebf;fillColor=#dae8fc;fontFamily=Helvetica;fontSize=37;align=center;strokeWidth=3;" parent="1" vertex="1">
          <mxGeometry x="428.57894736842115" y="2504.6666666666665" width="311.84210526315786" height="259.86842105263156" as="geometry" />
        </mxCell>
        <mxCell id="648" value="&lt;font style=&quot;font-size: 37px;&quot;&gt;数据&lt;br style=&quot;font-size: 37px;&quot;&gt;资产化&lt;/font&gt;" style="shape=hexagon;perimeter=hexagonPerimeter2;whiteSpace=wrap;html=1;shadow=0;labelBackgroundColor=none;strokeColor=#6c8ebf;fillColor=#dae8fc;fontFamily=Helvetica;fontSize=37;align=center;strokeWidth=3;" parent="1" vertex="1">
          <mxGeometry x="739.9978947368422" y="2764.5353508771927" width="311.84210526315786" height="259.86842105263156" as="geometry" />
        </mxCell>
        <mxCell id="649" value="&lt;font style=&quot;font-size: 37px;&quot;&gt;资产&lt;br style=&quot;font-size: 37px;&quot;&gt;服务化&lt;/font&gt;" style="shape=hexagon;perimeter=hexagonPerimeter2;whiteSpace=wrap;html=1;shadow=0;labelBackgroundColor=none;strokeColor=#6c8ebf;fillColor=#dae8fc;fontFamily=Helvetica;fontSize=37;align=center;strokeWidth=3;" parent="1" vertex="1">
          <mxGeometry x="428.57894736842115" y="3024.7982456140344" width="311.84210526315786" height="259.86842105263156" as="geometry" />
        </mxCell>
        <mxCell id="651" value="&lt;font style=&quot;font-size: 37px;&quot;&gt;服务&lt;br style=&quot;font-size: 37px;&quot;&gt;业务化&lt;br style=&quot;font-size: 37px;&quot;&gt;&lt;/font&gt;" style="shape=hexagon;perimeter=hexagonPerimeter2;whiteSpace=wrap;html=1;shadow=0;labelBackgroundColor=none;strokeColor=#6c8ebf;fillColor=#dae8fc;fontFamily=Helvetica;fontSize=37;align=center;strokeWidth=3;" parent="1" vertex="1">
          <mxGeometry x="116.74000000000011" y="2764.5395614035087" width="311.84210526315786" height="259.86842105263156" as="geometry" />
        </mxCell>
        <mxCell id="ly6Jiqgfz2qiB4Dlfhox-658" value="" style="shape=flexArrow;endArrow=classic;html=1;rounded=0;fillColor=#23445d;" edge="1" parent="1">
          <mxGeometry width="50" height="50" relative="1" as="geometry">
            <mxPoint x="400" y="2782.67" as="sourcePoint" />
            <mxPoint x="450" y="2732.67" as="targetPoint" />
          </mxGeometry>
        </mxCell>
        <mxCell id="ly6Jiqgfz2qiB4Dlfhox-660" value="" style="shape=flexArrow;endArrow=classic;html=1;rounded=0;fillColor=#23445d;" edge="1" parent="1">
          <mxGeometry width="50" height="50" relative="1" as="geometry">
            <mxPoint x="720" y="2730" as="sourcePoint" />
            <mxPoint x="770" y="2780" as="targetPoint" />
          </mxGeometry>
        </mxCell>
        <mxCell id="ly6Jiqgfz2qiB4Dlfhox-661" value="" style="shape=flexArrow;endArrow=classic;html=1;rounded=0;fillColor=#23445d;" edge="1" parent="1">
          <mxGeometry width="50" height="50" relative="1" as="geometry">
            <mxPoint x="440" y="3050" as="sourcePoint" />
            <mxPoint x="390" y="3010" as="targetPoint" />
          </mxGeometry>
        </mxCell>
        <mxCell id="ly6Jiqgfz2qiB4Dlfhox-662" value="" style="shape=flexArrow;endArrow=classic;html=1;rounded=0;fillColor=#23445d;" edge="1" parent="1">
          <mxGeometry width="50" height="50" relative="1" as="geometry">
            <mxPoint x="770" y="3010" as="sourcePoint" />
            <mxPoint x="720" y="3050" as="targetPoint" />
          </mxGeometry>
        </mxCell>
        <mxCell id="ly6Jiqgfz2qiB4Dlfhox-667" value="&lt;ul style=&quot;border-color: var(--border-color); text-align: left; font-size: 22px;&quot;&gt;&lt;li style=&quot;border-color: var(--border-color);&quot;&gt;各类业务系统：教务、学工、人事、资产、宿舍、安防等37个业务系统&lt;/li&gt;&lt;/ul&gt;" style="rounded=1;whiteSpace=wrap;html=1;fillColor=#fff2cc;strokeColor=#d6b656;strokeWidth=4;" vertex="1" parent="1">
          <mxGeometry x="803" y="2530" width="326" height="150" as="geometry" />
        </mxCell>
        <mxCell id="ly6Jiqgfz2qiB4Dlfhox-668" value="&lt;ul style=&quot;font-size: 22px;&quot;&gt;&lt;li&gt;数据中台（校本数据中心）&lt;/li&gt;&lt;li&gt;数据交换平台&lt;/li&gt;&lt;li&gt;数据开发系统&lt;/li&gt;&lt;li&gt;数据资产清单、责任清单、共享清单&lt;/li&gt;&lt;/ul&gt;" style="rounded=1;whiteSpace=wrap;html=1;fillColor=#fff2cc;strokeColor=#d6b656;strokeWidth=4;align=left;" vertex="1" parent="1">
          <mxGeometry x="816" y="3057" width="341" height="150" as="geometry" />
        </mxCell>
        <mxCell id="ly6Jiqgfz2qiB4Dlfhox-669" value="&lt;ul style=&quot;font-size: 22px;&quot;&gt;&lt;li&gt;数据资产的形成从明细数据转向指标和关系数据&lt;/li&gt;&lt;/ul&gt;" style="rounded=1;whiteSpace=wrap;html=1;fillColor=#d5e8d4;strokeColor=#82b366;strokeWidth=4;align=left;" vertex="1" parent="1">
          <mxGeometry x="816" y="3217" width="341" height="86" as="geometry" />
        </mxCell>
        <mxCell id="ly6Jiqgfz2qiB4Dlfhox-670" value="&lt;ul style=&quot;font-size: 22px;&quot;&gt;&lt;li&gt;教育管理决策系统（数字驾驶舱）&lt;/li&gt;&lt;li&gt;数据门户&lt;/li&gt;&lt;li&gt;其他应用&lt;/li&gt;&lt;/ul&gt;" style="rounded=1;whiteSpace=wrap;html=1;fillColor=#fff2cc;strokeColor=#d6b656;strokeWidth=4;align=left;" vertex="1" parent="1">
          <mxGeometry x="9" y="3107" width="380" height="150" as="geometry" />
        </mxCell>
        <mxCell id="ly6Jiqgfz2qiB4Dlfhox-671" value="&lt;ul style=&quot;font-size: 22px;&quot;&gt;&lt;li&gt;服务平台(API对接业务系统）&lt;/li&gt;&lt;/ul&gt;" style="rounded=1;whiteSpace=wrap;html=1;fillColor=#fff2cc;strokeColor=#d6b656;strokeWidth=4;align=left;" vertex="1" parent="1">
          <mxGeometry x="9" y="2594" width="380" height="75.6" as="geometry" />
        </mxCell>
      </root>
    </mxGraphModel>
  </diagram>
</mxfile>
